<svg width="20" height="20" viewBox="0 0 20 20" fill="none" xmlns="http://www.w3.org/2000/svg">
<path d="M3.15625 20C2.63542 20 2.19271 19.838 1.82813 19.5139C1.46354 19.1898 1.28125 18.7963 1.28125 18.3333V2.5H0V0.833333H5.875V0H14.125V0.833333H20V2.5H18.7188V18.3333C18.7188 18.7778 18.5312 19.1667 18.1562 19.5C17.7812 19.8333 17.3438 20 16.8438 20H3.15625ZM16.8438 2.5H3.15625V18.3333H16.8438V2.5ZM6.46875 15.9444H8.34375V4.86111H6.46875V15.9444ZM11.6562 15.9444H13.5312V4.86111H11.6562V15.9444ZM3.15625 2.5V18.3333V2.5Z" fill="white"/>
</svg>
