<svg width="20" height="20" viewBox="0 0 20 20" fill="none" xmlns="http://www.w3.org/2000/svg">
<path d="M1.58103 20C1.15942 20 0.790514 19.8333 0.474308 19.5C0.158103 19.1667 0 18.7778 0 18.3333V1.66667C0 1.22222 0.158103 0.833333 0.474308 0.5C0.790514 0.166667 1.15942 0 1.58103 0H17.3913C17.8129 0 18.1818 0.166667 18.498 0.5C18.8142 0.833333 18.9723 1.22222 18.9723 1.66667V4.16667H17.3913V1.66667H1.58103V18.3333H17.3913V15.8333H18.9723V18.3333C18.9723 18.7778 18.8142 19.1667 18.498 19.5C18.1818 19.8333 17.8129 20 17.3913 20H1.58103ZM15.0988 15.1667L13.9921 14L16.9697 10.8333H6.93017V9.16667H16.9697L13.9921 6L15.0988 4.83333L20 10L15.0988 15.1667Z" fill="white"/>
</svg>
